<svg xmlns="http://www.w3.org/2000/svg" xmlns:xlink="http://www.w3.org/1999/xlink" width="420" zoomAndPan="magnify" viewBox="0 0 315 225" height="300" preserveAspectRatio="xMidYMid meet" version="1.0"><defs><clipPath id="75c017782c"><path d="M 113.183594 35 L 156 35 L 156 68 L 113.183594 68 Z M 113.183594 35 " clip-rule="nonzero"/></clipPath><clipPath id="2468ccdefe"><path d="M 152 27.339844 L 160 27.339844 L 160 43 L 152 43 Z M 152 27.339844 " clip-rule="nonzero"/></clipPath><clipPath id="3322f0bf7c"><path d="M 113.183594 136 L 156 136 L 156 170 L 113.183594 170 Z M 113.183594 136 " clip-rule="nonzero"/></clipPath><clipPath id="eac006df8d"><path d="M 152 162 L 160 162 L 160 177.339844 L 152 177.339844 Z M 152 162 " clip-rule="nonzero"/></clipPath></defs><g clip-path="url(#75c017782c)"><path fill="#e0cb8f" d="M 155.886719 39.984375 C 147.5 33.351562 137.695312 35.128906 133.769531 40.886719 C 132.414062 42.871094 132.015625 45.320312 129.511719 46.945312 C 126.171875 49.113281 125.453125 47.207031 123.054688 48.117188 C 120.835938 48.960938 119.492188 51.507812 120.160156 53.703125 C 120.605469 55.5 121.992188 57.109375 121.574219 59.203125 C 121.15625 61.300781 120.480469 62.820312 118.488281 63.03125 C 115.652344 63.328125 116.660156 59.722656 114.480469 61.046875 C 113.183594 61.832031 113.777344 65.515625 116.988281 67.085938 C 124.191406 70.605469 130.621094 61.761719 129.511719 56.148438 C 128.675781 51.925781 130.644531 49.441406 133.351562 48.515625 C 135.945312 47.632812 136.023438 48.667969 140.53125 45.972656 C 145.042969 43.28125 145.542969 36.84375 155.886719 39.984375 Z M 155.886719 39.984375 " fill-opacity="1" fill-rule="nonzero"/></g><path fill="#e0cb8f" d="M 155.886719 39.984375 C 164.269531 33.351562 174.078125 35.128906 178 40.886719 C 179.355469 42.871094 179.753906 45.320312 182.257812 46.945312 C 185.597656 49.113281 186.316406 47.207031 188.714844 48.117188 C 190.933594 48.960938 192.277344 51.507812 191.609375 53.703125 C 191.164062 55.5 189.777344 57.109375 190.195312 59.203125 C 190.613281 61.300781 191.289062 62.820312 193.28125 63.03125 C 196.121094 63.328125 195.109375 59.722656 197.289062 61.046875 C 198.585938 61.832031 197.996094 65.515625 194.785156 67.085938 C 187.578125 70.605469 181.148438 61.761719 182.257812 56.148438 C 183.09375 51.925781 181.125 49.441406 178.417969 48.515625 C 175.828125 47.632812 175.746094 48.667969 171.238281 45.972656 C 166.730469 43.28125 166.226562 36.84375 155.886719 39.984375 Z M 155.886719 39.984375 " fill-opacity="1" fill-rule="nonzero"/><path fill="#e0cb8f" d="M 196.507812 102.386719 C 196.507812 86.285156 192.808594 71.027344 186.089844 59.433594 C 178.488281 46.3125 167.765625 39.085938 155.894531 39.085938 C 144.027344 39.085938 133.304688 46.3125 125.703125 59.433594 C 118.984375 71.027344 115.285156 86.285156 115.285156 102.386719 L 119.777344 102.386719 C 119.777344 87.058594 123.257812 72.605469 129.589844 61.683594 C 136.355469 50.003906 145.695312 43.574219 155.894531 43.574219 C 166.097656 43.574219 175.441406 50.003906 182.207031 61.683594 C 188.535156 72.605469 192.019531 87.058594 192.019531 102.386719 Z M 196.507812 102.386719 " fill-opacity="1" fill-rule="nonzero"/><g clip-path="url(#2468ccdefe)"><path fill="#e0cb8f" d="M 155.886719 42.683594 C 155.886719 42.683594 159.507812 38.109375 159.507812 32.414062 C 159.507812 30.253906 159.140625 27.574219 155.886719 27.574219 C 152.628906 27.574219 152.261719 30.253906 152.261719 32.414062 C 152.261719 38.109375 155.886719 42.683594 155.886719 42.683594 Z M 155.886719 42.683594 " fill-opacity="1" fill-rule="nonzero"/></g><path fill="#e0cb8f" d="M 155.886719 42.683594 C 155.886719 42.683594 156.328125 37.480469 153.277344 32.9375 C 152.121094 31.214844 150.394531 29.238281 147.800781 30.636719 C 145.203125 32.035156 146.34375 34.328125 147.5 36.050781 C 150.550781 40.59375 155.886719 42.683594 155.886719 42.683594 Z M 155.886719 42.683594 " fill-opacity="1" fill-rule="nonzero"/><path fill="#e0cb8f" d="M 155.886719 42.683594 C 155.886719 42.683594 153.78125 38.769531 149.464844 36.632812 C 147.828125 35.824219 145.664062 35.046875 144.445312 37.027344 C 143.222656 39.003906 145.113281 40.230469 146.75 41.039062 C 151.066406 43.175781 155.886719 42.683594 155.886719 42.683594 Z M 155.886719 42.683594 " fill-opacity="1" fill-rule="nonzero"/><path fill="#e0cb8f" d="M 155.90625 42.683594 C 155.90625 42.683594 155.464844 37.480469 158.515625 32.9375 C 159.671875 31.214844 161.398438 29.238281 163.992188 30.636719 C 166.589844 32.035156 165.449219 34.328125 164.292969 36.050781 C 161.242188 40.59375 155.90625 42.683594 155.90625 42.683594 Z M 155.90625 42.683594 " fill-opacity="1" fill-rule="nonzero"/><path fill="#e0cb8f" d="M 155.90625 42.683594 C 155.90625 42.683594 158.011719 38.769531 162.328125 36.632812 C 163.964844 35.824219 166.128906 35.046875 167.347656 37.027344 C 168.570312 39.003906 166.679688 40.230469 165.042969 41.039062 C 160.726562 43.175781 155.90625 42.683594 155.90625 42.683594 Z M 155.90625 42.683594 " fill-opacity="1" fill-rule="nonzero"/><path fill="#e9e8e6" d="M 146.90625 39.886719 C 145.550781 39.007812 145.847656 36.371094 147.832031 36.910156 C 148.667969 37.136719 149.457031 37.742188 150.160156 38.234375 C 151.527344 39.1875 152.648438 40.421875 153.980469 41.417969 C 154.050781 41.46875 154.152344 41.367188 154.101562 41.296875 C 153.160156 40.042969 152.027344 38.976562 150.773438 38.035156 C 149.832031 37.332031 148.332031 36.09375 147.042969 36.269531 C 145.113281 36.53125 144.898438 39.769531 146.808594 40.117188 C 146.949219 40.140625 147.03125 39.964844 146.90625 39.886719 Z M 146.90625 39.886719 " fill-opacity="1" fill-rule="nonzero"/><path fill="#e9e8e6" d="M 148 34.503906 C 147.285156 32.371094 149.339844 31.609375 150.957031 32.441406 C 152.054688 33.007812 152.632812 34.300781 153.070312 35.378906 C 153.75 37.050781 154.078125 38.976562 155.191406 40.429688 C 155.273438 40.535156 155.449219 40.480469 155.414062 40.335938 C 154.953125 38.476562 154.152344 36.585938 153.425781 34.808594 C 152.898438 33.523438 152.128906 32.425781 150.871094 31.796875 C 148.8125 30.761719 146.6875 32.480469 147.789062 34.589844 C 147.851562 34.707031 148.042969 34.625 148 34.503906 Z M 148 34.503906 " fill-opacity="1" fill-rule="nonzero"/><path fill="#e9e8e6" d="M 153.53125 31.644531 C 153.832031 30.351562 154.097656 29.195312 155.730469 29.078125 C 157.410156 28.957031 157.835938 31.054688 157.984375 32.265625 C 158.316406 34.949219 157.039062 37.742188 156.472656 40.320312 C 156.429688 40.511719 156.707031 40.648438 156.796875 40.457031 C 158.078125 37.738281 160.003906 32.167969 157.667969 29.484375 C 155.875 27.425781 152.925781 29.046875 153.320312 31.644531 C 153.339844 31.753906 153.507812 31.742188 153.53125 31.644531 Z M 153.53125 31.644531 " fill-opacity="1" fill-rule="nonzero"/><path fill="#e9e8e6" d="M 161.144531 31.839844 C 162.832031 30.785156 163.316406 33.0625 163.269531 34.121094 C 163.222656 35.207031 162.664062 36.160156 162 36.980469 C 161.042969 38.164062 159.609375 39 158.539062 40.09375 C 158.304688 40.335938 158.601562 40.660156 158.878906 40.535156 C 159.574219 40.226562 160.042969 39.753906 160.582031 39.21875 C 161.207031 38.59375 161.9375 38.191406 162.53125 37.511719 C 163.394531 36.527344 163.851562 35.414062 164 34.121094 C 164.105469 33.214844 163.851562 31.9375 163.011719 31.414062 C 162.296875 30.96875 161.394531 30.804688 160.90625 31.601562 C 160.816406 31.75 160.996094 31.933594 161.144531 31.839844 Z M 161.144531 31.839844 " fill-opacity="1" fill-rule="nonzero"/><path fill="#e9e8e6" d="M 164.648438 36.851562 C 165.054688 36.871094 165.496094 36.808594 165.75 37.226562 C 166 37.636719 165.984375 38.195312 165.882812 38.640625 C 165.707031 39.421875 164.730469 39.789062 164.058594 39.96875 C 163.027344 40.25 161.648438 40.074219 160.867188 40.925781 C 160.78125 41.023438 160.835938 41.210938 160.984375 41.203125 C 161.902344 41.152344 162.84375 40.902344 163.75 40.738281 C 164.648438 40.578125 165.449219 40.238281 166.054688 39.535156 C 166.566406 38.941406 166.585938 38.183594 166.40625 37.457031 C 166.179688 36.539062 165.453125 36.480469 164.648438 36.550781 C 164.457031 36.570312 164.453125 36.84375 164.648438 36.851562 Z M 164.648438 36.851562 " fill-opacity="1" fill-rule="nonzero"/><path fill="#e9e8e6" d="M 165.75 41.265625 C 165.761719 43.128906 168.015625 44.78125 169.410156 45.679688 C 170.519531 46.394531 171.695312 46.765625 172.945312 47.15625 C 174.308594 47.578125 175.699219 48.15625 177.140625 48.128906 C 177.261719 48.125 177.332031 47.941406 177.207031 47.886719 C 175.3125 47.078125 173.222656 46.691406 171.273438 46.011719 C 169.292969 45.320312 166.648438 43.339844 166.085938 41.21875 C 166.035156 41.03125 165.746094 41.070312 165.75 41.265625 Z M 165.75 41.265625 " fill-opacity="1" fill-rule="nonzero"/><path fill="#e9e8e6" d="M 136.519531 47.234375 C 138.660156 47.363281 140.742188 46.886719 142.601562 45.816406 C 143.972656 45.023438 146.027344 43.554688 146.34375 41.910156 C 146.378906 41.726562 146.183594 41.625 146.042969 41.738281 C 145.425781 42.226562 145.03125 42.917969 144.488281 43.488281 C 143.839844 44.175781 143.058594 44.730469 142.261719 45.234375 C 140.535156 46.324219 138.523438 46.757812 136.519531 46.96875 C 136.351562 46.984375 136.34375 47.222656 136.519531 47.234375 Z M 136.519531 47.234375 " fill-opacity="1" fill-rule="nonzero"/><path fill="#e9e8e6" d="M 122.753906 67.429688 C 125.25 66.167969 126.808594 64.382812 127.921875 61.820312 C 128.539062 60.398438 128.871094 58.871094 129.234375 57.367188 C 129.441406 56.511719 129.648438 55.511719 129.058594 54.785156 C 128.976562 54.683594 128.835938 54.777344 128.824219 54.882812 C 128.332031 59.792969 127.039062 64.433594 122.601562 67.171875 C 122.4375 67.273438 122.582031 67.519531 122.753906 67.429688 Z M 122.753906 67.429688 " fill-opacity="1" fill-rule="nonzero"/><path fill="#e9e8e6" d="M 182.390625 55.40625 C 182.109375 57.542969 183.058594 60.125 183.960938 62.027344 C 184.929688 64.066406 186.53125 66.054688 188.585938 67.058594 C 188.734375 67.128906 188.90625 66.941406 188.769531 66.820312 C 187.175781 65.390625 185.726562 64.027344 184.648438 62.148438 C 183.519531 60.183594 182.910156 57.65625 182.664062 55.40625 C 182.644531 55.226562 182.414062 55.230469 182.390625 55.40625 Z M 182.390625 55.40625 " fill-opacity="1" fill-rule="nonzero"/><path fill="#e9e8e6" d="M 168.5625 39.566406 C 172.207031 39.964844 176.039062 42.6875 178.390625 45.378906 C 178.441406 45.441406 178.542969 45.363281 178.5 45.296875 C 176.484375 42.210938 172.382812 39.28125 168.5625 39.324219 C 168.402344 39.324219 168.410156 39.550781 168.5625 39.566406 Z M 168.5625 39.566406 " fill-opacity="1" fill-rule="nonzero"/><path fill="#e9e8e6" d="M 183.996094 50.324219 C 186.628906 51.113281 187.957031 53.875 187.917969 56.449219 C 187.890625 58.238281 187.246094 59.960938 187.550781 61.753906 C 188 64.382812 191.960938 66.785156 193.917969 64.300781 C 194.035156 64.15625 193.894531 63.941406 193.714844 64.039062 C 192.488281 64.691406 191.714844 64.945312 190.394531 64.234375 C 189.320312 63.652344 188.527344 62.75 188.203125 61.574219 C 187.753906 59.945312 188.375 58.097656 188.472656 56.449219 C 188.640625 53.554688 186.9375 50.796875 184.054688 50.113281 C 183.917969 50.082031 183.863281 50.28125 183.996094 50.324219 Z M 183.996094 50.324219 " fill-opacity="1" fill-rule="nonzero"/><path fill="#e9e8e6" d="M 117.140625 64.472656 C 119.78125 65.953125 123.542969 64.6875 124.214844 61.5625 C 124.558594 59.953125 124.351562 58.003906 124.0625 56.402344 C 123.828125 55.109375 123.75 53.683594 124.570312 52.585938 C 124.984375 52.039062 125.328125 51.542969 125.984375 51.269531 C 126.390625 51.101562 126.5 51.042969 126.792969 50.742188 C 126.890625 50.640625 126.828125 50.425781 126.667969 50.441406 C 123.910156 50.753906 122.921875 53.679688 123.332031 56.089844 C 123.640625 57.917969 123.90625 59.960938 123.53125 61.804688 C 123.011719 64.34375 119.289062 65.261719 117.246094 64.292969 C 117.125 64.234375 117.019531 64.40625 117.140625 64.472656 Z M 117.140625 64.472656 " fill-opacity="1" fill-rule="nonzero"/><path fill="#e9e8e6" d="M 135 44.921875 C 136.742188 42.066406 138.660156 40.015625 142.128906 39.636719 C 142.347656 39.613281 142.390625 39.335938 142.179688 39.257812 C 140.714844 38.71875 139.121094 39.769531 137.894531 40.492188 C 136.386719 41.371094 135.417969 43.242188 134.695312 44.742188 C 134.601562 44.945312 134.878906 45.117188 135 44.921875 Z M 135 44.921875 " fill-opacity="1" fill-rule="nonzero"/><path fill="#e9e8e6" d="M 156.300781 36.882812 C 156.441406 35.847656 156.027344 34.933594 155.59375 34.019531 C 155.363281 33.527344 155.136719 33.042969 154.988281 32.519531 C 154.894531 32.203125 154.875 31.886719 154.9375 31.5625 C 155.691406 31.21875 156.191406 31.316406 156.4375 31.851562 C 156.550781 31.992188 156.644531 32.140625 156.71875 32.304688 C 156.761719 32.386719 156.867188 32.339844 156.878906 32.261719 C 156.949219 31.625 156.820312 30.816406 156.101562 30.566406 C 155.496094 30.351562 154.699219 30.546875 154.449219 31.210938 C 153.707031 33.203125 156.203125 34.925781 156.085938 36.851562 C 156.078125 36.972656 156.28125 37.003906 156.300781 36.882812 Z M 156.300781 36.882812 " fill-opacity="1" fill-rule="nonzero"/><path fill="#e9e8e6" d="M 159.378906 37.742188 C 160.066406 36.984375 160.074219 36.035156 160.074219 35.054688 C 160.078125 34.40625 159.96875 33.523438 160.882812 33.453125 C 161.652344 33.394531 161.601562 34.164062 161.875 34.621094 C 161.910156 34.679688 162.015625 34.707031 162.066406 34.644531 C 162.367188 34.261719 162.3125 33.722656 161.972656 33.355469 C 161.539062 32.875 160.953125 32.792969 160.34375 32.953125 C 159.839844 33.085938 159.585938 33.648438 159.53125 34.121094 C 159.390625 35.328125 159.554688 36.429688 159.160156 37.617188 C 159.121094 37.738281 159.292969 37.835938 159.378906 37.742188 Z M 159.378906 37.742188 " fill-opacity="1" fill-rule="nonzero"/><path fill="#e9e8e6" d="M 150.339844 33.949219 C 149.421875 33.726562 148.875 34.785156 149.441406 35.5 C 149.75 35.886719 150.171875 36.226562 150.640625 36.402344 C 151.667969 36.789062 152.441406 37.425781 152.828125 38.46875 C 152.863281 38.5625 153 38.527344 152.976562 38.425781 C 152.78125 37.59375 152.234375 37.042969 151.617188 36.484375 C 151.144531 36.0625 148.503906 34.757812 150.339844 34.171875 C 150.445312 34.136719 150.457031 33.976562 150.339844 33.949219 Z M 150.339844 33.949219 " fill-opacity="1" fill-rule="nonzero"/><path fill="#e9e8e6" d="M 148.472656 38.644531 C 148.421875 38.621094 148.371094 38.597656 148.320312 38.5625 C 148.261719 38.527344 148.167969 38.519531 148.109375 38.5625 C 147.332031 39.113281 148.183594 40.367188 148.757812 40.726562 C 149.230469 41.027344 149.828125 41.125 150.371094 41.214844 C 150.945312 41.3125 151.546875 41.527344 152.128906 41.433594 C 152.1875 41.421875 152.21875 41.339844 152.1875 41.292969 C 151.730469 40.667969 150.734375 40.667969 150.035156 40.503906 C 149.589844 40.402344 149.140625 40.296875 148.785156 39.992188 C 148.574219 39.816406 148.128906 39.011719 148.472656 38.851562 C 148.550781 38.8125 148.550781 38.679688 148.472656 38.644531 Z M 148.472656 38.644531 " fill-opacity="1" fill-rule="nonzero"/><path fill="#e9e8e6" d="M 164.78125 38.316406 C 164.722656 38.125 164.707031 37.949219 164.582031 37.789062 C 164.464844 37.636719 164.304688 37.523438 164.128906 37.453125 C 163.6875 37.285156 163.226562 37.566406 163.136719 38.011719 C 163.113281 38.136719 163.234375 38.230469 163.347656 38.171875 C 163.566406 38.066406 163.800781 37.898438 164.046875 37.96875 C 164.25 38.027344 164.496094 38.214844 164.578125 38.40625 C 164.628906 38.523438 164.820312 38.4375 164.78125 38.316406 Z M 164.78125 38.316406 " fill-opacity="1" fill-rule="nonzero"/><path fill="#e9e8e6" d="M 138.242188 44.039062 C 139.03125 43.113281 140.292969 42.902344 141.082031 41.988281 C 141.136719 41.925781 141.070312 41.84375 140.996094 41.878906 C 139.882812 42.410156 138.75 42.808594 138.011719 43.859375 C 137.917969 43.996094 138.136719 44.164062 138.242188 44.039062 Z M 138.242188 44.039062 " fill-opacity="1" fill-rule="nonzero"/><path fill="#e9e8e6" d="M 125.65625 61.835938 C 126.871094 61.234375 126.523438 58.792969 125.957031 57.851562 C 125.902344 57.757812 125.78125 57.808594 125.773438 57.898438 C 125.640625 59.039062 126.273438 60.59375 125.453125 61.570312 C 125.328125 61.71875 125.480469 61.921875 125.65625 61.835938 Z M 125.65625 61.835938 " fill-opacity="1" fill-rule="nonzero"/><path fill="#e9e8e6" d="M 121.769531 53.664062 C 121.921875 53.140625 121.90625 52.601562 122.132812 52.09375 C 122.375 51.554688 122.84375 51.191406 123.203125 50.742188 C 123.300781 50.621094 123.214844 50.367188 123.03125 50.445312 C 121.871094 50.921875 121.066406 52.425781 121.390625 53.664062 C 121.441406 53.851562 121.71875 53.847656 121.769531 53.664062 Z M 121.769531 53.664062 " fill-opacity="1" fill-rule="nonzero"/><path fill="#e9e8e6" d="M 169.554688 42.039062 C 169.613281 43.078125 171.066406 43.710938 171.957031 43.816406 C 172.039062 43.824219 172.058594 43.703125 171.996094 43.664062 C 171.632812 43.4375 171.304688 43.179688 170.953125 42.9375 C 170.609375 42.699219 170.113281 42.398438 169.960938 41.984375 C 169.882812 41.777344 169.539062 41.792969 169.554688 42.039062 Z M 169.554688 42.039062 " fill-opacity="1" fill-rule="nonzero"/><path fill="#e9e8e6" d="M 174.265625 39.988281 C 174.832031 40.285156 175.292969 40.699219 175.714844 41.171875 C 176.101562 41.601562 176.449219 42.082031 176.984375 42.335938 C 177.085938 42.382812 177.199219 42.285156 177.140625 42.183594 C 176.832031 41.636719 176.363281 41.179688 175.929688 40.730469 C 175.484375 40.265625 175 39.910156 174.394531 39.683594 C 174.214844 39.613281 174.097656 39.902344 174.265625 39.988281 Z M 174.265625 39.988281 " fill-opacity="1" fill-rule="nonzero"/><path fill="#e9e8e6" d="M 184.425781 52.828125 C 184.734375 53.261719 185.058594 53.664062 185.308594 54.140625 C 185.585938 54.664062 185.597656 55.261719 185.917969 55.765625 C 185.964844 55.839844 186.078125 55.84375 186.121094 55.765625 C 186.730469 54.695312 185.574219 53.144531 184.738281 52.515625 C 184.558594 52.378906 184.296875 52.644531 184.425781 52.828125 Z M 184.425781 52.828125 " fill-opacity="1" fill-rule="nonzero"/><path fill="#e9e8e6" d="M 189.476562 61.054688 C 189.304688 62.125 190.222656 63.078125 191.179688 63.390625 C 191.28125 63.425781 191.363281 63.28125 191.285156 63.207031 C 190.6875 62.652344 189.785156 61.980469 189.75 61.089844 C 189.746094 60.941406 189.5 60.890625 189.476562 61.054688 Z M 189.476562 61.054688 " fill-opacity="1" fill-rule="nonzero"/><path fill="#e9e8e6" d="M 118.144531 100.292969 C 118.585938 94.558594 118.710938 88.902344 119.90625 83.246094 C 120.480469 80.523438 121.21875 77.832031 122.078125 75.183594 C 122.441406 74.0625 122.746094 72.917969 123.113281 71.792969 C 123.492188 70.617188 124.136719 69.546875 124.414062 68.339844 C 124.488281 68.023438 124.042969 67.910156 123.933594 68.207031 C 123.5625 69.222656 123.058594 70.179688 122.675781 71.195312 C 122.207031 72.4375 121.902344 73.757812 121.507812 75.027344 C 120.679688 77.691406 119.929688 80.363281 119.332031 83.089844 C 118.109375 88.664062 117.519531 94.59375 117.933594 100.292969 C 117.945312 100.429688 118.132812 100.429688 118.144531 100.292969 Z M 118.144531 100.292969 " fill-opacity="1" fill-rule="nonzero"/><path fill="#e9e8e6" d="M 131.449219 55.460938 C 132.28125 54.269531 133.160156 53.007812 134.121094 51.917969 C 134.898438 51.035156 136.050781 50.457031 136.703125 49.484375 C 136.761719 49.394531 136.664062 49.261719 136.558594 49.296875 C 134.0625 50.191406 132.5625 53.269531 131.261719 55.351562 C 131.1875 55.472656 131.371094 55.574219 131.449219 55.460938 Z M 131.449219 55.460938 " fill-opacity="1" fill-rule="nonzero"/><path fill="#e9e8e6" d="M 175 49.617188 C 176.894531 51.363281 178.734375 53.203125 180.03125 55.464844 C 180.097656 55.578125 180.300781 55.5 180.25 55.375 C 179.304688 53.054688 177.6875 50.3125 175.335938 49.179688 C 175.066406 49.050781 174.757812 49.390625 175 49.617188 Z M 175 49.617188 " fill-opacity="1" fill-rule="nonzero"/><path fill="#e9e8e6" d="M 188.203125 69.515625 C 189.707031 74.476562 191.652344 79.246094 192.574219 84.371094 C 193.074219 87.140625 193.292969 89.980469 193.523438 92.78125 C 193.746094 95.472656 193.59375 98.269531 194.066406 100.925781 C 194.089844 101.058594 194.308594 101.058594 194.332031 100.925781 C 194.785156 98.285156 194.394531 95.433594 194.1875 92.78125 C 193.980469 90.097656 193.722656 87.402344 193.316406 84.742188 C 192.507812 79.480469 190.65625 74.238281 188.507812 69.386719 C 188.429688 69.214844 188.152344 69.339844 188.203125 69.515625 Z M 188.203125 69.515625 " fill-opacity="1" fill-rule="nonzero"/><g clip-path="url(#3322f0bf7c)"><path fill="#e0cb8f" d="M 155.886719 164.792969 C 147.5 171.425781 137.695312 169.644531 133.769531 163.890625 C 132.414062 161.90625 132.015625 159.457031 129.511719 157.832031 C 126.171875 155.660156 125.453125 157.570312 123.054688 156.660156 C 120.835938 155.816406 119.492188 153.265625 120.160156 151.074219 C 120.605469 149.277344 121.992188 147.667969 121.574219 145.570312 C 121.15625 143.476562 120.480469 141.957031 118.488281 141.746094 C 115.652344 141.445312 116.660156 145.054688 114.480469 143.730469 C 113.183594 142.941406 113.777344 139.257812 116.988281 137.6875 C 124.191406 134.167969 130.621094 143.015625 129.511719 148.628906 C 128.675781 152.847656 130.644531 155.335938 133.351562 156.257812 C 135.945312 157.144531 136.023438 156.109375 140.53125 158.804688 C 145.042969 161.496094 145.542969 167.929688 155.886719 164.792969 Z M 155.886719 164.792969 " fill-opacity="1" fill-rule="nonzero"/></g><path fill="#e0cb8f" d="M 155.886719 164.792969 C 164.269531 171.425781 174.078125 169.644531 178 163.890625 C 179.355469 161.90625 179.753906 159.457031 182.257812 157.832031 C 185.597656 155.660156 186.316406 157.570312 188.714844 156.660156 C 190.933594 155.816406 192.277344 153.265625 191.609375 151.074219 C 191.164062 149.277344 189.777344 147.667969 190.195312 145.570312 C 190.613281 143.476562 191.289062 141.957031 193.28125 141.746094 C 196.121094 141.445312 195.109375 145.054688 197.289062 143.730469 C 198.585938 142.941406 197.996094 139.257812 194.785156 137.6875 C 187.578125 134.167969 181.148438 143.015625 182.257812 148.628906 C 183.09375 152.847656 181.125 155.335938 178.417969 156.257812 C 175.828125 157.144531 175.746094 156.109375 171.238281 158.804688 C 166.730469 161.496094 166.226562 167.929688 155.886719 164.792969 Z M 155.886719 164.792969 " fill-opacity="1" fill-rule="nonzero"/><path fill="#e0cb8f" d="M 192.019531 102.386719 C 192.019531 117.714844 188.535156 132.167969 182.207031 143.09375 C 175.441406 154.773438 166.097656 161.203125 155.894531 161.203125 C 145.695312 161.203125 136.355469 154.773438 129.589844 143.09375 C 123.257812 132.167969 119.777344 117.714844 119.777344 102.386719 L 115.285156 102.386719 C 115.285156 118.492188 118.984375 133.75 125.703125 145.34375 C 133.304688 158.464844 144.027344 165.691406 155.894531 165.691406 C 167.765625 165.691406 178.488281 158.464844 186.089844 145.34375 C 192.808594 133.75 196.507812 118.492188 196.507812 102.386719 Z M 192.019531 102.386719 " fill-opacity="1" fill-rule="nonzero"/><g clip-path="url(#eac006df8d)"><path fill="#e0cb8f" d="M 155.886719 162.09375 C 155.886719 162.09375 159.507812 166.664062 159.507812 172.363281 C 159.507812 174.523438 159.140625 177.199219 155.886719 177.199219 C 152.628906 177.199219 152.261719 174.523438 152.261719 172.363281 C 152.261719 166.664062 155.886719 162.09375 155.886719 162.09375 Z M 155.886719 162.09375 " fill-opacity="1" fill-rule="nonzero"/></g><path fill="#e0cb8f" d="M 155.886719 162.09375 C 155.886719 162.09375 156.328125 167.296875 153.277344 171.839844 C 152.121094 173.558594 150.394531 175.535156 147.800781 174.136719 C 145.203125 172.738281 146.34375 170.445312 147.5 168.726562 C 150.550781 164.179688 155.886719 162.09375 155.886719 162.09375 Z M 155.886719 162.09375 " fill-opacity="1" fill-rule="nonzero"/><path fill="#e0cb8f" d="M 155.886719 162.089844 C 155.886719 162.089844 153.78125 166.007812 149.464844 168.140625 C 147.828125 168.949219 145.664062 169.730469 144.445312 167.75 C 143.222656 165.769531 145.113281 164.542969 146.75 163.734375 C 151.066406 161.601562 155.886719 162.089844 155.886719 162.089844 Z M 155.886719 162.089844 " fill-opacity="1" fill-rule="nonzero"/><path fill="#e0cb8f" d="M 155.90625 162.09375 C 155.90625 162.09375 155.464844 167.296875 158.515625 171.839844 C 159.671875 173.558594 161.398438 175.535156 163.992188 174.136719 C 166.589844 172.738281 165.449219 170.445312 164.292969 168.726562 C 161.242188 164.179688 155.90625 162.09375 155.90625 162.09375 Z M 155.90625 162.09375 " fill-opacity="1" fill-rule="nonzero"/><path fill="#e0cb8f" d="M 155.90625 162.089844 C 155.90625 162.089844 158.011719 166.007812 162.328125 168.140625 C 163.964844 168.949219 166.128906 169.730469 167.347656 167.75 C 168.570312 165.769531 166.679688 164.542969 165.042969 163.734375 C 160.726562 161.601562 155.90625 162.089844 155.90625 162.089844 Z M 155.90625 162.089844 " fill-opacity="1" fill-rule="nonzero"/><path fill="#e9e8e6" d="M 146.808594 164.660156 C 145.015625 164.988281 145.140625 167.859375 146.683594 168.457031 C 147.886719 168.925781 149.550781 167.609375 150.421875 166.996094 C 151.816406 166.015625 153.078125 164.84375 154.101562 163.480469 C 154.152344 163.410156 154.050781 163.308594 153.980469 163.359375 C 152.648438 164.355469 151.507812 165.566406 150.160156 166.542969 C 149.429688 167.070312 148.671875 167.539062 147.832031 167.867188 C 145.855469 168.632812 145.601562 165.734375 146.90625 164.890625 C 147.03125 164.808594 146.949219 164.632812 146.808594 164.660156 Z M 146.808594 164.660156 " fill-opacity="1" fill-rule="nonzero"/><path fill="#e9e8e6" d="M 147.789062 170.183594 C 146.6875 172.296875 148.8125 174.011719 150.871094 172.980469 C 152.128906 172.351562 152.902344 171.25 153.425781 169.964844 C 154.152344 168.191406 154.957031 166.296875 155.414062 164.441406 C 155.449219 164.296875 155.273438 164.238281 155.191406 164.347656 C 154.089844 165.789062 153.707031 167.722656 153.070312 169.398438 C 152.628906 170.5625 152.019531 171.636719 150.957031 172.332031 C 149.359375 173.378906 147.335938 172.25 148.003906 170.273438 C 148.042969 170.148438 147.851562 170.070312 147.789062 170.183594 Z M 147.789062 170.183594 " fill-opacity="1" fill-rule="nonzero"/><path fill="#e9e8e6" d="M 153.320312 173.132812 C 152.925781 175.730469 155.875 177.347656 157.667969 175.292969 C 160.003906 172.609375 158.078125 167.035156 156.796875 164.316406 C 156.707031 164.125 156.429688 164.265625 156.472656 164.457031 C 157.015625 166.941406 157.976562 169.363281 158.015625 171.933594 C 158.035156 173.222656 157.722656 174.738281 156.578125 175.488281 C 155.730469 176.042969 154.570312 175.558594 154.03125 174.832031 C 153.679688 174.355469 153.660156 173.6875 153.53125 173.132812 C 153.507812 173.03125 153.339844 173.023438 153.320312 173.132812 Z M 153.320312 173.132812 " fill-opacity="1" fill-rule="nonzero"/><path fill="#e9e8e6" d="M 160.90625 173.175781 C 161.292969 173.800781 162.097656 173.929688 162.746094 173.527344 C 163.667969 172.953125 163.949219 172.085938 164.015625 171.042969 C 164.09375 169.839844 163.554688 168.542969 162.820312 167.621094 C 162.324219 167.003906 161.808594 166.488281 161.179688 166.015625 C 160.386719 165.421875 159.792969 164.644531 158.878906 164.242188 C 158.601562 164.117188 158.304688 164.4375 158.539062 164.679688 C 159.625 165.789062 160.976562 166.640625 162 167.796875 C 162.722656 168.613281 163.140625 169.574219 163.269531 170.65625 C 163.402344 171.742188 162.765625 173.949219 161.144531 172.933594 C 160.996094 172.839844 160.816406 173.027344 160.90625 173.175781 Z M 160.90625 173.175781 " fill-opacity="1" fill-rule="nonzero"/><path fill="#e9e8e6" d="M 164.648438 168.222656 C 165.335938 168.285156 166.042969 168.308594 166.324219 167.542969 C 166.613281 166.761719 166.582031 165.992188 166.101562 165.304688 C 165.613281 164.601562 164.792969 164.277344 163.996094 164.085938 C 163.042969 163.859375 161.960938 163.625 160.984375 163.574219 C 160.835938 163.566406 160.78125 163.75 160.867188 163.847656 C 161.578125 164.628906 162.851562 164.566406 163.8125 164.75 C 164.578125 164.898438 165.253906 165.199219 165.734375 165.832031 C 166.019531 166.210938 165.972656 166.746094 165.886719 167.175781 C 165.75 167.863281 165.230469 167.894531 164.648438 167.921875 C 164.453125 167.933594 164.457031 168.207031 164.648438 168.222656 Z M 164.648438 168.222656 " fill-opacity="1" fill-rule="nonzero"/><path fill="#e9e8e6" d="M 166.085938 163.554688 C 166.625 161.527344 168.785156 160.113281 170.480469 159.117188 C 172.492188 157.933594 175.074219 157.800781 177.207031 156.890625 C 177.332031 156.835938 177.261719 156.648438 177.140625 156.648438 C 175.714844 156.621094 174.285156 157.167969 172.945312 157.621094 C 171.691406 158.046875 170.546875 158.398438 169.410156 159.09375 C 168.007812 159.957031 165.761719 161.671875 165.75 163.507812 C 165.746094 163.703125 166.035156 163.742188 166.085938 163.554688 Z M 166.085938 163.554688 " fill-opacity="1" fill-rule="nonzero"/><path fill="#e9e8e6" d="M 136.519531 157.808594 C 138.574219 158.023438 140.460938 158.503906 142.261719 159.542969 C 143.082031 160.019531 143.808594 160.632812 144.488281 161.285156 C 145.0625 161.839844 145.421875 162.546875 146.042969 163.039062 C 146.183594 163.148438 146.378906 163.046875 146.34375 162.863281 C 146.019531 161.179688 143.964844 159.820312 142.601562 158.960938 C 140.816406 157.835938 138.605469 157.414062 136.519531 157.542969 C 136.34375 157.550781 136.351562 157.789062 136.519531 157.808594 Z M 136.519531 157.808594 " fill-opacity="1" fill-rule="nonzero"/><path fill="#e9e8e6" d="M 122.601562 137.605469 C 127.039062 140.339844 128.332031 144.984375 128.824219 149.894531 C 128.835938 150 128.976562 150.09375 129.058594 149.992188 C 129.582031 149.347656 129.441406 148.597656 129.320312 147.816406 C 129.0625 146.210938 128.582031 144.523438 127.949219 143.027344 C 126.855469 140.429688 125.265625 138.613281 122.753906 137.34375 C 122.582031 137.257812 122.4375 137.503906 122.601562 137.605469 Z M 122.601562 137.605469 " fill-opacity="1" fill-rule="nonzero"/><path fill="#e9e8e6" d="M 182.664062 149.371094 C 182.914062 147.078125 183.570312 144.664062 184.648438 142.628906 C 185.652344 140.730469 187.203125 139.363281 188.769531 137.957031 C 188.90625 137.835938 188.734375 137.648438 188.585938 137.71875 C 186.617188 138.679688 185.214844 140.46875 184.167969 142.347656 C 183.09375 144.28125 182.097656 147.140625 182.390625 149.371094 C 182.414062 149.542969 182.644531 149.546875 182.664062 149.371094 Z M 182.664062 149.371094 " fill-opacity="1" fill-rule="nonzero"/><path fill="#e9e8e6" d="M 168.5625 165.453125 C 172.382812 165.496094 176.484375 162.5625 178.5 159.480469 C 178.542969 159.414062 178.441406 159.335938 178.390625 159.394531 C 176.039062 162.085938 172.207031 164.8125 168.5625 165.207031 C 168.410156 165.222656 168.402344 165.453125 168.5625 165.453125 Z M 168.5625 165.453125 " fill-opacity="1" fill-rule="nonzero"/><path fill="#e9e8e6" d="M 184.054688 154.664062 C 187.03125 153.957031 188.507812 151.238281 188.472656 148.328125 C 188.453125 146.597656 187.886719 144.941406 188.203125 143.203125 C 188.394531 142.144531 189.164062 141.410156 189.988281 140.808594 C 191.351562 139.816406 192.34375 140.003906 193.714844 140.738281 C 193.894531 140.832031 194.035156 140.617188 193.917969 140.472656 C 191.957031 137.984375 188.511719 140.332031 187.648438 142.660156 C 187.058594 144.242188 187.730469 146.253906 187.890625 147.84375 C 188.160156 150.5625 186.777344 153.621094 183.996094 154.453125 C 183.863281 154.492188 183.917969 154.695312 184.054688 154.664062 Z M 184.054688 154.664062 " fill-opacity="1" fill-rule="nonzero"/><path fill="#e9e8e6" d="M 117.246094 140.484375 C 119.394531 139.464844 121.851562 140.410156 123.214844 142.242188 C 123.851562 143.097656 123.65625 144.460938 123.652344 145.460938 C 123.648438 146.566406 123.515625 147.601562 123.332031 148.6875 C 122.921875 151.097656 123.910156 154.023438 126.667969 154.335938 C 126.828125 154.351562 126.890625 154.132812 126.792969 154.035156 C 126.292969 153.519531 125.601562 153.359375 125.078125 152.84375 C 124.039062 151.828125 123.882812 150.644531 123.9375 149.273438 C 124.019531 147.261719 124.648438 145.25 124.210938 143.214844 C 123.542969 140.089844 119.78125 138.824219 117.140625 140.304688 C 117.019531 140.371094 117.125 140.539062 117.246094 140.484375 Z M 117.246094 140.484375 " fill-opacity="1" fill-rule="nonzero"/><path fill="#e9e8e6" d="M 134.695312 160.03125 C 135.480469 161.664062 136.390625 163.113281 137.832031 164.238281 C 138.917969 165.085938 140.8125 166.019531 142.179688 165.515625 C 142.390625 165.4375 142.347656 165.160156 142.128906 165.136719 C 138.660156 164.757812 136.742188 162.710938 135 159.855469 C 134.878906 159.660156 134.601562 159.832031 134.695312 160.03125 Z M 134.695312 160.03125 " fill-opacity="1" fill-rule="nonzero"/><path fill="#e9e8e6" d="M 156.085938 167.925781 C 156.203125 169.851562 153.707031 171.570312 154.449219 173.5625 C 154.628906 174.042969 155.347656 174.476562 155.859375 174.296875 C 156.695312 174.003906 156.96875 173.355469 156.878906 172.511719 C 156.867188 172.4375 156.761719 172.390625 156.71875 172.46875 C 156.589844 172.714844 156.429688 172.929688 156.285156 173.164062 C 155.835938 173.179688 155.386719 173.199219 154.9375 173.214844 C 154.882812 172.96875 154.882812 172.726562 154.933594 172.480469 C 155.011719 171.980469 155.246094 171.496094 155.457031 171.042969 C 155.933594 170.035156 156.457031 169.042969 156.300781 167.894531 C 156.28125 167.773438 156.078125 167.804688 156.085938 167.925781 Z M 156.085938 167.925781 " fill-opacity="1" fill-rule="nonzero"/><path fill="#e9e8e6" d="M 159.160156 167.160156 C 159.53125 168.277344 159.441406 169.300781 159.507812 170.449219 C 159.539062 171.023438 159.75 171.527344 160.273438 171.792969 C 161.25 172.289062 162.871094 171.164062 162.066406 170.132812 C 162.015625 170.066406 161.910156 170.09375 161.875 170.15625 C 161.570312 170.664062 161.675781 171.261719 160.882812 171.320312 C 159.96875 171.390625 160.078125 170.277344 160.074219 169.71875 C 160.070312 168.742188 160.070312 167.792969 159.378906 167.035156 C 159.292969 166.9375 159.121094 167.039062 159.160156 167.160156 Z M 159.160156 167.160156 " fill-opacity="1" fill-rule="nonzero"/><path fill="#e9e8e6" d="M 150.339844 170.605469 C 148.503906 170.015625 151.144531 168.714844 151.617188 168.289062 C 152.234375 167.734375 152.78125 167.179688 152.976562 166.347656 C 153 166.25 152.863281 166.214844 152.828125 166.308594 C 152.46875 167.28125 151.867188 167.734375 150.992188 168.222656 C 150.410156 168.550781 149.878906 168.730469 149.441406 169.277344 C 148.875 169.988281 149.421875 171.050781 150.339844 170.828125 C 150.457031 170.800781 150.445312 170.640625 150.339844 170.605469 Z M 150.339844 170.605469 " fill-opacity="1" fill-rule="nonzero"/><path fill="#e9e8e6" d="M 148.472656 165.925781 C 148.109375 165.757812 148.597656 164.976562 148.785156 164.78125 C 149.097656 164.460938 149.617188 164.367188 150.035156 164.269531 C 150.734375 164.109375 151.730469 164.105469 152.1875 163.484375 C 152.222656 163.4375 152.1875 163.351562 152.128906 163.34375 C 151.59375 163.257812 151.070312 163.445312 150.542969 163.53125 C 149.96875 163.628906 149.417969 163.734375 148.886719 163.980469 C 148.230469 164.277344 147.300781 165.636719 148.109375 166.210938 C 148.167969 166.253906 148.261719 166.25 148.320312 166.210938 C 148.371094 166.179688 148.421875 166.152344 148.472656 166.132812 C 148.550781 166.097656 148.550781 165.960938 148.472656 165.925781 Z M 148.472656 165.925781 " fill-opacity="1" fill-rule="nonzero"/><path fill="#e9e8e6" d="M 164.578125 166.371094 C 164.496094 166.554688 164.25 166.757812 164.046875 166.804688 C 163.796875 166.871094 163.570312 166.710938 163.347656 166.601562 C 163.234375 166.546875 163.113281 166.636719 163.136719 166.765625 C 163.230469 167.222656 163.628906 167.417969 164.066406 167.339844 C 164.25 167.304688 164.414062 167.167969 164.539062 167.042969 C 164.703125 166.875 164.714844 166.667969 164.78125 166.457031 C 164.820312 166.339844 164.628906 166.253906 164.578125 166.371094 Z M 164.578125 166.371094 " fill-opacity="1" fill-rule="nonzero"/><path fill="#e9e8e6" d="M 138.011719 160.917969 C 138.75 161.96875 139.882812 162.363281 140.996094 162.898438 C 141.070312 162.933594 141.136719 162.847656 141.082031 162.789062 C 140.292969 161.875 139.03125 161.664062 138.242188 160.738281 C 138.136719 160.609375 137.917969 160.777344 138.011719 160.917969 Z M 138.011719 160.917969 " fill-opacity="1" fill-rule="nonzero"/><path fill="#e9e8e6" d="M 125.453125 143.207031 C 126.273438 144.183594 125.640625 145.738281 125.773438 146.875 C 125.78125 146.96875 125.902344 147.015625 125.957031 146.925781 C 126.523438 145.984375 126.871094 143.539062 125.65625 142.941406 C 125.480469 142.855469 125.328125 143.058594 125.453125 143.207031 Z M 125.453125 143.207031 " fill-opacity="1" fill-rule="nonzero"/><path fill="#e9e8e6" d="M 121.390625 151.113281 C 121.066406 152.347656 121.867188 153.851562 123.03125 154.332031 C 123.214844 154.40625 123.300781 154.152344 123.203125 154.03125 C 122.867188 153.613281 122.46875 153.273438 122.195312 152.804688 C 121.890625 152.277344 121.9375 151.679688 121.769531 151.113281 C 121.71875 150.929688 121.441406 150.921875 121.390625 151.113281 Z M 121.390625 151.113281 " fill-opacity="1" fill-rule="nonzero"/><path fill="#e9e8e6" d="M 169.960938 162.792969 C 170.113281 162.378906 170.609375 162.078125 170.953125 161.839844 C 171.304688 161.59375 171.632812 161.339844 171.996094 161.109375 C 172.058594 161.070312 172.039062 160.949219 171.957031 160.960938 C 171.066406 161.0625 169.613281 161.695312 169.554688 162.738281 C 169.539062 162.984375 169.882812 162.996094 169.960938 162.792969 Z M 169.960938 162.792969 " fill-opacity="1" fill-rule="nonzero"/><path fill="#e9e8e6" d="M 174.394531 165.09375 C 174.953125 164.882812 175.394531 164.570312 175.820312 164.15625 C 176.296875 163.695312 176.808594 163.175781 177.140625 162.59375 C 177.199219 162.488281 177.082031 162.394531 176.984375 162.441406 C 176.453125 162.691406 176.097656 163.171875 175.714844 163.605469 C 175.296875 164.082031 174.828125 164.492188 174.265625 164.785156 C 174.097656 164.875 174.214844 165.160156 174.394531 165.09375 Z M 174.394531 165.09375 " fill-opacity="1" fill-rule="nonzero"/><path fill="#e9e8e6" d="M 184.738281 152.261719 C 185.574219 151.632812 186.730469 150.082031 186.121094 149.011719 C 186.078125 148.929688 185.964844 148.9375 185.917969 149.011719 C 185.644531 149.4375 185.59375 149.921875 185.421875 150.390625 C 185.203125 150.980469 184.785156 151.445312 184.425781 151.949219 C 184.296875 152.128906 184.558594 152.398438 184.738281 152.261719 Z M 184.738281 152.261719 " fill-opacity="1" fill-rule="nonzero"/><path fill="#e9e8e6" d="M 189.75 143.683594 C 189.785156 142.796875 190.6875 142.121094 191.285156 141.566406 C 191.363281 141.492188 191.28125 141.351562 191.179688 141.386719 C 190.222656 141.699219 189.304688 142.652344 189.476562 143.722656 C 189.5 143.882812 189.746094 143.835938 189.75 143.683594 Z M 189.75 143.683594 " fill-opacity="1" fill-rule="nonzero"/><path fill="#e9e8e6" d="M 117.933594 104.484375 C 117.53125 110.011719 118.109375 115.710938 119.214844 121.132812 C 119.773438 123.875 120.511719 126.578125 121.347656 129.25 C 121.75 130.542969 122.125 131.847656 122.542969 133.140625 C 122.925781 134.320312 123.507812 135.40625 123.933594 136.570312 C 124.042969 136.867188 124.488281 136.753906 124.414062 136.4375 C 124.167969 135.371094 123.628906 134.441406 123.246094 133.425781 C 122.835938 132.339844 122.5625 131.1875 122.230469 130.078125 C 121.433594 127.425781 120.636719 124.789062 120.027344 122.082031 C 118.707031 116.253906 118.601562 110.40625 118.144531 104.484375 C 118.132812 104.347656 117.945312 104.347656 117.933594 104.484375 Z M 117.933594 104.484375 " fill-opacity="1" fill-rule="nonzero"/><path fill="#e9e8e6" d="M 131.261719 149.425781 C 132.5625 151.507812 134.0625 154.585938 136.558594 155.476562 C 136.664062 155.515625 136.761719 155.382812 136.703125 155.292969 C 136.0625 154.332031 134.921875 153.695312 134.121094 152.855469 C 133.132812 151.824219 132.265625 150.488281 131.449219 149.316406 C 131.371094 149.203125 131.1875 149.304688 131.261719 149.425781 Z M 131.261719 149.425781 " fill-opacity="1" fill-rule="nonzero"/><path fill="#e9e8e6" d="M 175.335938 155.59375 C 177.6875 154.464844 179.304688 151.722656 180.25 149.402344 C 180.300781 149.273438 180.097656 149.195312 180.03125 149.308594 C 178.734375 151.574219 176.894531 153.414062 175 155.160156 C 174.757812 155.382812 175.066406 155.726562 175.335938 155.59375 Z M 175.335938 155.59375 " fill-opacity="1" fill-rule="nonzero"/><path fill="#e9e8e6" d="M 188.507812 135.390625 C 190.671875 130.507812 192.421875 125.308594 193.316406 120.035156 C 193.765625 117.382812 193.96875 114.671875 194.1875 111.996094 C 194.402344 109.347656 194.78125 106.484375 194.332031 103.847656 C 194.308594 103.714844 194.089844 103.71875 194.066406 103.847656 C 193.628906 106.320312 193.75 108.917969 193.566406 111.421875 C 193.363281 114.234375 193.097656 117.066406 192.667969 119.855469 C 191.839844 125.1875 189.757812 130.132812 188.203125 135.261719 C 188.152344 135.4375 188.429688 135.5625 188.507812 135.390625 Z M 188.507812 135.390625 " fill-opacity="1" fill-rule="nonzero"/></svg>