<svg xmlns="http://www.w3.org/2000/svg" xmlns:xlink="http://www.w3.org/1999/xlink" width="1080" zoomAndPan="magnify" viewBox="0 0 810 809.999993" height="1080" preserveAspectRatio="xMidYMid meet" version="1.0"><defs><clipPath id="3c732fc040"><path d="M 265.050781 212.621094 L 500 212.621094 L 500 613.871094 L 265.050781 613.871094 Z M 265.050781 212.621094 " clip-rule="nonzero"/></clipPath></defs><g clip-path="url(#3c732fc040)"><path fill="#000000" d="M 292.761719 688.078125 C 292.308594 686.601562 288.914062 660.886719 287.203125 645.953125 C 286.527344 640.078125 285.417969 637.753906 279.96875 630.835938 C 276.429688 626.335938 271.679688 619.09375 269.410156 614.734375 C 265.59375 607.394531 265.289062 605.933594 265.269531 594.882812 C 265.25 584.074219 265.589844 582.320312 268.875 576.203125 C 274.636719 565.46875 285.40625 553.9375 292.847656 550.535156 C 296.402344 548.910156 300.304688 546.054688 301.519531 544.191406 C 304.21875 540.054688 317.3125 525.074219 323.152344 519.441406 C 326.910156 515.816406 327.253906 514.972656 326.050781 512.332031 C 324.992188 510.015625 325.089844 508.753906 326.46875 506.785156 C 328.085938 504.484375 328.007812 504.160156 325.679688 503.421875 C 323.527344 502.738281 323.234375 501.945312 323.917969 498.664062 C 324.371094 496.496094 325.824219 493.601562 327.152344 492.230469 C 329.5625 489.742188 329.566406 489.742188 334.449219 492.542969 C 337.136719 494.085938 339.628906 495.347656 339.984375 495.347656 C 340.34375 495.347656 340.511719 493.265625 340.363281 490.722656 C 340.148438 487.121094 340.589844 485.996094 342.363281 485.632812 C 343.617188 485.375 345.667969 486.09375 346.925781 487.230469 C 349.105469 489.199219 349.308594 488.976562 351.199219 482.476562 C 353.984375 472.910156 353.6875 467.058594 349.90625 457.195312 C 348.105469 452.492188 345.964844 446.121094 345.148438 443.039062 L 343.667969 437.4375 L 335.367188 435.933594 C 330.800781 435.105469 321.757812 432.339844 315.273438 429.789062 C 302.289062 424.675781 300.421875 422.648438 301.660156 415.035156 C 302.273438 411.257812 301.835938 409.953125 298.9375 406.933594 C 297.039062 404.953125 295.789062 402.539062 296.164062 401.570312 C 296.535156 400.597656 295.789062 398.203125 294.503906 396.246094 C 292.363281 392.992188 292.332031 392.5 294.136719 390.507812 C 297.226562 387.101562 295.410156 385.070312 287.226562 382.777344 C 280.496094 380.890625 275.851562 378.183594 275.851562 376.148438 C 275.851562 374.054688 288.320312 354.78125 291.960938 351.25 L 296.21875 347.113281 L 293.207031 343.8125 C 291.550781 341.996094 290.785156 340.84375 291.503906 341.253906 C 292.222656 341.660156 293.539062 341.542969 294.425781 340.996094 C 295.640625 340.246094 295.082031 339.011719 292.183594 336.050781 C 287.746094 331.519531 287.671875 331.191406 290.207031 327.570312 C 291.40625 325.863281 291.632812 324.601562 290.828125 324.105469 C 290.132812 323.675781 289.882812 321.816406 290.277344 319.976562 C 290.960938 316.765625 290.910156 316.726562 289.03125 319.042969 C 287.957031 320.375 287.078125 321.984375 287.078125 322.621094 C 287.078125 323.257812 286.222656 323.074219 285.175781 322.207031 C 284.128906 321.339844 283.5625 320.339844 283.917969 319.988281 C 284.269531 319.636719 284.0625 318.734375 283.453125 317.988281 C 282.84375 317.238281 281.742188 314.410156 281 311.707031 C 279.785156 307.261719 279.988281 306.234375 283.082031 301.121094 C 288.964844 291.394531 289.570312 289.988281 289.570312 286.089844 C 289.570312 281.191406 292.253906 274.917969 295.636719 271.910156 C 297.101562 270.605469 298.304688 268.511719 298.304688 267.257812 C 298.304688 263.972656 311.417969 254.078125 316.570312 253.476562 C 318.886719 253.207031 323.4375 253.992188 326.683594 255.222656 L 332.585938 257.457031 L 341.949219 252.992188 C 360.136719 244.316406 365.457031 243.140625 386.238281 243.199219 C 403.207031 243.246094 405.453125 243.515625 410.34375 246.074219 C 414.570312 248.285156 416.125 248.582031 417.503906 247.4375 C 418.472656 246.636719 418.976562 245.507812 418.621094 244.933594 C 417.34375 242.875 417.679688 235.203125 419.210938 231.515625 C 420.269531 228.957031 422.363281 227.121094 425.773438 225.757812 C 430.648438 223.8125 430.921875 223.84375 436.257812 226.964844 C 439.273438 228.726562 443.171875 231.6875 444.929688 233.546875 L 448.121094 236.917969 L 447.273438 233.183594 C 446.808594 231.128906 444.871094 225.664062 442.960938 221.039062 L 439.492188 212.632812 L 442.800781 212.667969 C 444.621094 212.6875 449.464844 214.507812 453.5625 216.714844 C 460.722656 220.570312 461.140625 221.070312 464.214844 229.449219 C 465.976562 234.242188 469.777344 242.898438 472.664062 248.683594 C 475.554688 254.472656 477.917969 260.945312 477.917969 263.074219 C 477.917969 265.628906 480.261719 270.636719 484.8125 277.800781 C 489.023438 284.425781 492.148438 290.949219 492.832031 294.546875 C 493.445312 297.785156 495.199219 303.238281 496.726562 306.664062 C 501.148438 316.585938 501.015625 329.613281 496.359375 342.488281 C 494.316406 348.128906 491.632812 355.609375 490.390625 359.113281 C 487.164062 368.226562 484.402344 373.171875 480.609375 376.644531 C 474.414062 382.308594 457.367188 392.871094 450.0625 395.5625 C 446.0625 397.035156 441.15625 399.085938 439.160156 400.117188 C 434.726562 402.40625 433.515625 402.351562 434.027344 399.878906 C 434.328125 398.433594 433.738281 398.191406 431.53125 398.855469 C 427.257812 400.148438 426.894531 400.746094 425.050781 409.558594 C 423.917969 414.949219 423.691406 419.695312 424.367188 423.800781 C 424.925781 427.1875 425.414062 430.648438 425.453125 431.492188 C 425.511719 432.683594 426.238281 432.699219 428.738281 431.5625 C 431.207031 430.4375 432.503906 430.445312 434.335938 431.585938 C 435.648438 432.40625 437.394531 433.074219 438.214844 433.074219 C 439.035156 433.074219 442.0625 434.210938 444.9375 435.601562 L 450.164062 438.128906 L 445.246094 452.726562 C 439.730469 469.105469 439.730469 469.507812 445.441406 486.003906 C 454.71875 512.8125 460.425781 536.207031 460.601562 548.125 C 460.683594 553.6875 461.160156 559.921875 461.660156 561.976562 L 462.574219 565.714844 L 465.421875 559.175781 C 468.222656 552.742188 470.433594 550.730469 470.433594 554.613281 C 470.433594 555.699219 472.101562 557.21875 474.144531 557.988281 C 479.152344 559.875 481.34375 565.730469 477.859375 567.90625 C 473.617188 570.550781 475.160156 571.316406 484.703125 571.316406 C 489.808594 571.316406 494.28125 571.796875 494.640625 572.378906 C 495.003906 572.964844 494.628906 575.21875 493.808594 577.390625 C 492.628906 580.507812 492.652344 581.871094 493.917969 583.894531 C 495.308594 586.117188 495.210938 586.539062 493.199219 587.066406 C 491.917969 587.398438 490.179688 589.457031 489.332031 591.636719 L 487.785156 595.601562 L 484.726562 591.867188 C 480.875 587.160156 480.882812 588.535156 484.777344 599.960938 C 488.945312 612.199219 488.878906 612.902344 483.675781 612.058594 C 481.355469 611.683594 478.867188 611.964844 478.148438 612.683594 C 476.222656 614.605469 472.925781 612.890625 472.925781 609.964844 C 472.925781 608.574219 472.367188 607.433594 471.683594 607.433594 C 471 607.433594 469.640625 605.613281 468.667969 603.386719 L 466.894531 599.339844 L 466.792969 605.804688 C 466.734375 609.359375 466.082031 612.644531 465.34375 613.101562 C 464.601562 613.558594 457.164062 614.011719 448.816406 614.109375 C 434.753906 614.273438 433.222656 614.53125 428.023438 617.617188 C 424.9375 619.449219 418.777344 624.632812 414.339844 629.136719 C 409.898438 633.640625 405.578125 637.324219 404.738281 637.324219 C 403.898438 637.324219 401.984375 633.960938 400.480469 629.851562 C 398.980469 625.742188 397.558594 622.378906 397.320312 622.378906 C 397.082031 622.378906 393.234375 624.609375 388.777344 627.335938 C 384.316406 630.0625 376.632812 634.320312 371.703125 636.796875 C 351.710938 646.851562 323.335938 665.539062 306.714844 679.601562 C 300.195312 685.121094 294.496094 689.632812 294.046875 689.632812 C 293.597656 689.632812 293.019531 688.933594 292.757812 688.078125 Z M 298.285156 315.617188 C 298.296875 313.597656 297.777344 312.445312 297.054688 312.890625 C 296.371094 313.3125 295.816406 315.726562 295.828125 318.253906 C 295.84375 321.683594 296.15625 322.378906 297.054688 320.984375 C 297.722656 319.957031 298.273438 317.542969 298.285156 315.617188 Z M 287.554688 312.824219 C 287.980469 311.714844 287.769531 311.214844 287.0625 311.652344 C 286.386719 312.070312 285.832031 312.941406 285.832031 313.585938 C 285.832031 315.375 286.726562 314.980469 287.554688 312.824219 Z M 290.1875 297.335938 C 290.625 296.628906 290.125 296.421875 289.015625 296.847656 C 286.851562 297.671875 286.457031 298.566406 288.25 298.566406 C 288.898438 298.566406 289.769531 298.011719 290.1875 297.335938 Z M 300.378906 290.78125 C 300.03125 289.925781 299.75 290.625 299.75 292.339844 C 299.75 294.050781 300.03125 294.753906 300.378906 293.894531 C 300.722656 293.039062 300.722656 291.640625 300.378906 290.78125 Z M 307.597656 280.820312 C 310.195312 277.566406 311.667969 274.902344 310.867188 274.902344 C 308.683594 274.902344 304.121094 280.304688 302.378906 284.949219 C 300.703125 289.433594 300.722656 289.417969 307.597656 280.820312 Z M 306.410156 269.921875 C 306.835938 269.238281 306.621094 268.675781 305.933594 268.675781 C 305.25 268.675781 304.339844 269.238281 303.917969 269.921875 C 303.492188 270.605469 303.707031 271.167969 304.394531 271.167969 C 305.078125 271.167969 305.988281 270.605469 306.410156 269.921875 Z M 318.261719 258.710938 C 318.261719 258.027344 316.609375 257.46875 314.59375 257.46875 C 312.574219 257.46875 310.578125 258.027344 310.152344 258.710938 C 309.695312 259.453125 311.179688 259.957031 313.820312 259.957031 C 316.261719 259.957031 318.261719 259.398438 318.261719 258.710938 Z M 318.261719 258.710938 " fill-opacity="1" fill-rule="nonzero"/></g></svg>