<svg xmlns="http://www.w3.org/2000/svg" xmlns:xlink="http://www.w3.org/1999/xlink" width="1080" zoomAndPan="magnify" viewBox="0 0 810 809.999993" height="1080" preserveAspectRatio="xMidYMid meet" version="1.0"><defs><clipPath id="fa6bd7179f"><path d="M 226.480469 196 L 547.480469 196 L 547.480469 614.394531 L 226.480469 614.394531 Z M 226.480469 196 " clip-rule="nonzero"/></clipPath></defs><g clip-path="url(#fa6bd7179f)"><path fill="#000000" d="M 229.058594 608.226562 C 230.476562 604.910156 232.625 598.945312 233.835938 594.964844 C 235.050781 590.988281 238.230469 584.273438 240.910156 580.042969 C 243.589844 575.816406 245.78125 570.320312 245.78125 567.832031 C 245.78125 562.601562 252.203125 553.050781 264.464844 540.039062 C 269.191406 535.023438 273.066406 529.960938 273.074219 528.789062 C 273.082031 527.621094 276.695312 522.011719 281.097656 516.328125 C 285.503906 510.644531 289.109375 505.5625 289.109375 505.039062 C 289.109375 504.511719 292.628906 500.445312 296.925781 496 C 301.226562 491.554688 305.976562 485.539062 307.476562 482.636719 C 310.136719 477.476562 310.105469 477.203125 306.136719 471.199219 C 301.601562 464.335938 294.636719 458.5625 284.261719 453.066406 C 274.886719 448.101562 271.703125 443.3125 269.761719 431.257812 C 268.066406 420.695312 263.800781 408.660156 263.5625 413.757812 C 263.414062 416.976562 259.265625 417.589844 258.132812 414.5625 C 257.691406 413.390625 256.71875 414.226562 255.792969 416.570312 C 254.21875 420.554688 254.191406 420.539062 252.578125 414.730469 C 250.257812 406.402344 252.859375 394.652344 258.875 386.25 C 263.757812 379.429688 263.828125 379.105469 261.261719 374.75 C 258.234375 369.625 258.007812 366.585938 260.117188 359.632812 C 262.945312 350.316406 265.339844 325.429688 263.707031 322.308594 C 257.921875 311.230469 256.46875 305.402344 258.238281 300.359375 C 259.226562 297.539062 260.777344 289.808594 261.679688 283.179688 C 264.691406 261.097656 270.914062 241.28125 276.316406 236.570312 C 276.824219 236.128906 278.523438 232.332031 280.097656 228.132812 C 281.667969 223.933594 283.480469 220.5 284.125 220.5 C 284.769531 220.5 286.695312 219.210938 288.40625 217.636719 C 301.261719 205.800781 332.304688 196.027344 355.707031 196.449219 C 376.671875 196.828125 380.578125 197.132812 380.578125 198.402344 C 380.578125 199.066406 381.84375 199.609375 383.386719 199.613281 C 386.507812 199.621094 406.414062 207.25 412.671875 210.839844 C 414.878906 212.101562 417.632812 212.945312 418.789062 212.707031 C 423.421875 211.761719 432.972656 216.527344 440.417969 223.5 C 449.734375 232.226562 454.792969 241.382812 455.191406 250.230469 C 455.351562 253.769531 457.035156 261.597656 458.9375 267.632812 C 461.742188 276.539062 462.425781 282.882812 462.570312 301.382812 C 462.738281 323.152344 462.519531 324.800781 457.609375 338.625 C 454.785156 346.582031 451.15625 356.035156 449.546875 359.632812 C 447.941406 363.230469 446.136719 368.78125 445.542969 371.964844 C 444.945312 375.148438 442.722656 381.183594 440.601562 385.378906 C 436.539062 393.414062 435.660156 399.640625 438.351562 401.304688 C 439.421875 401.96875 439.425781 403.304688 438.367188 405.289062 C 437.488281 406.933594 437.21875 411.570312 437.773438 415.597656 C 438.535156 421.167969 439.585938 423.164062 442.171875 423.949219 C 447.84375 425.664062 452.554688 431.105469 455.148438 438.921875 C 456.695312 443.585938 458.953125 446.9375 461.21875 447.933594 C 463.511719 448.9375 465.707031 452.238281 467.234375 456.972656 C 468.855469 461.992188 472.785156 467.679688 479.269531 474.390625 C 500.976562 496.863281 504.460938 500.710938 510.546875 508.964844 C 514.046875 513.707031 517.636719 518.039062 518.53125 518.589844 C 520.660156 519.910156 537.5625 543.886719 543.113281 553.464844 C 547.375 560.820312 547.46875 561.5625 547.46875 587.617188 L 547.46875 614.25 L 226.480469 614.25 L 229.054688 608.222656 Z M 229.058594 608.226562 " fill-opacity="1" fill-rule="nonzero"/></g></svg>