<svg xmlns="http://www.w3.org/2000/svg" xmlns:xlink="http://www.w3.org/1999/xlink" width="1080" zoomAndPan="magnify" viewBox="0 0 810 809.999993" height="1080" preserveAspectRatio="xMidYMid meet" version="1.0"><defs><clipPath id="041bce16e6"><path d="M 276.871094 243 L 533 243 L 533 567 L 276.871094 567 Z M 276.871094 243 " clip-rule="nonzero"/></clipPath></defs><g clip-path="url(#041bce16e6)"><path fill="#000000" d="M 278.292969 435.164062 C 277.339844 438.042969 276.867188 440.996094 276.871094 444.027344 C 276.871094 448.117188 279.175781 450.816406 283.144531 451.96875 C 284.71875 452.402344 286.34375 452.671875 287.957031 452.953125 C 288.683594 453.03125 289.382812 453.226562 290.046875 453.539062 C 290.710938 453.847656 291.304688 454.253906 291.835938 454.761719 C 292.367188 455.269531 292.800781 455.84375 293.140625 456.492188 C 293.480469 457.144531 293.707031 457.828125 293.820312 458.550781 C 294.144531 459.898438 294.351562 461.261719 294.433594 462.644531 C 294.636719 468.730469 296.070312 474.304688 300.476562 478.898438 C 301.367188 479.964844 301.855469 481.191406 301.945312 482.578125 C 302.09375 485.808594 303.078125 488.757812 304.902344 491.429688 C 308.742188 496.710938 308.949219 502.359375 306.976562 508.308594 C 305.480469 512.402344 305.019531 516.609375 305.59375 520.929688 C 306.875 529.175781 312.738281 534.738281 321.042969 534.558594 C 325.457031 534.40625 329.785156 533.726562 334.035156 532.527344 C 342.058594 530.351562 349.90625 527.617188 357.878906 525.3125 C 360.6875 524.511719 363.550781 524.035156 366.46875 523.882812 C 370.386719 523.714844 371.972656 524.867188 373.199219 528.625 C 375.3125 535.019531 377.179688 541.617188 379.164062 548.101562 C 380.878906 553.777344 382.609375 559.417969 384.285156 565.082031 C 384.59375 566.078125 384.859375 567 386.730469 566.988281 C 386.730469 566.183594 386.730469 565.414062 386.628906 564.671875 C 405.828125 560.390625 520.558594 524.023438 522.738281 522.988281 C 522.1875 521.707031 521.699219 520.429688 521.148438 519.152344 C 517.308594 510.648438 513.558594 502.132812 509.628906 493.679688 C 508.796875 492.011719 508.144531 490.277344 507.664062 488.476562 C 507.1875 486.675781 506.894531 484.847656 506.792969 482.984375 C 506.6875 481.125 506.769531 479.273438 507.042969 477.433594 C 507.316406 475.589844 507.773438 473.792969 508.414062 472.042969 C 509.4375 469.230469 510.667969 466.492188 511.601562 463.679688 C 512.214844 461.8125 512.421875 459.84375 512.882812 457.914062 C 515.554688 446.789062 519.214844 435.882812 520.101562 424.386719 C 520.417969 420.371094 520.726562 416.34375 520.648438 412.328125 C 520.480469 401.410156 522.074219 390.753906 525.425781 380.359375 C 527.984375 372.328125 529.96875 364.121094 531.824219 355.910156 C 532.621094 352.066406 532.949219 348.183594 532.808594 344.261719 C 532.667969 340.339844 532.0625 336.492188 530.992188 332.714844 C 528.445312 322.6875 525.0625 312.953125 520.84375 303.507812 C 518.023438 297.425781 514.46875 291.808594 510.179688 286.652344 C 505.890625 281.5 501.007812 276.980469 495.539062 273.101562 C 490.613281 269.476562 485.488281 266.175781 480.152344 263.191406 C 474.816406 260.207031 469.316406 257.566406 463.652344 255.265625 C 457.988281 252.964844 452.203125 251.027344 446.296875 249.445312 C 440.390625 247.867188 434.410156 246.660156 428.355469 245.824219 C 415.046875 244.027344 401.738281 243.980469 388.417969 245.683594 C 374.8125 247.296875 361.347656 246.542969 347.730469 244.878906 C 339.359375 243.871094 330.910156 243.320312 322.488281 243.050781 C 317.945312 243.046875 313.445312 243.515625 309 244.457031 C 307.257812 244.777344 305.566406 245.261719 303.917969 245.90625 C 302.269531 246.550781 300.699219 247.347656 299.207031 248.296875 C 297.714844 249.246094 296.324219 250.324219 295.039062 251.539062 C 293.753906 252.753906 292.597656 254.082031 291.566406 255.519531 C 288.851562 259.183594 286.65625 263.136719 284.972656 267.378906 C 283.292969 271.617188 282.183594 276 281.648438 280.53125 C 280.773438 287.203125 280.996094 293.839844 282.324219 300.441406 C 282.679688 302.363281 283.199219 304.246094 283.878906 306.082031 C 284.554688 307.921875 285.386719 309.6875 286.367188 311.382812 C 287.347656 313.074219 288.464844 314.675781 289.722656 316.179688 C 290.976562 317.683594 292.351562 319.066406 293.84375 320.335938 C 295.277344 321.613281 296.777344 322.742188 298.273438 323.890625 C 302.855469 327.382812 303.394531 328.671875 301.679688 334.121094 C 299.246094 341.933594 296.660156 349.683594 294.164062 357.46875 C 291.605469 365.703125 290.277344 374.128906 290.183594 382.75 C 290.210938 387.539062 290.695312 392.277344 291.644531 396.96875 C 292.113281 399.136719 292.226562 401.324219 291.984375 403.53125 C 291.738281 405.738281 291.144531 407.847656 290.210938 409.859375 C 288.339844 413.835938 286.152344 417.660156 284.257812 421.648438 C 282.035156 426.050781 280.046875 430.554688 278.292969 435.164062 Z M 278.292969 435.164062 " fill-opacity="1" fill-rule="nonzero"/></g></svg>